<svg width="20" height="20" viewBox="0 0 20 20" fill="none" xmlns="http://www.w3.org/2000/svg">
<path d="M9.75 0C15.1348 0 19.5 4.36522 19.5 9.75C19.5 15.1348 15.1348 19.5 9.75 19.5C4.36522 19.5 0 15.1348 0 9.75C0 4.36522 4.36522 0 9.75 0ZM1.53613 10.5C1.85388 14.0249 4.38667 16.909 7.7334 17.75C7.53565 17.5013 7.33078 17.2232 7.12598 16.916C6.14624 15.4464 5.17291 13.3048 5.02246 10.5H1.53613ZM14.4775 10.5C14.3271 13.3048 13.3538 15.4464 12.374 16.916C12.1691 17.2234 11.9635 17.5012 11.7656 17.75C15.1128 16.9093 17.6461 14.0252 17.9639 10.5H14.4775ZM6.52539 10.5C6.67316 12.9503 7.52404 14.809 8.37402 16.084C8.84233 16.7864 9.30925 17.3112 9.65527 17.6572C9.68755 17.6895 9.71997 17.7189 9.75 17.748C9.78003 17.7189 9.81245 17.6895 9.84473 17.6572C10.1907 17.3112 10.6577 16.7864 11.126 16.084C11.976 14.809 12.8268 12.9503 12.9746 10.5H6.52539ZM11.7656 1.74902C11.9636 1.99802 12.1689 2.27633 12.374 2.58398C13.3538 4.0536 14.3271 6.19519 14.4775 9H17.9639C17.6461 5.47469 15.1129 2.58962 11.7656 1.74902ZM9.65527 1.84277C9.30925 2.18879 8.84233 2.71356 8.37402 3.41602C7.52404 4.69099 6.67316 6.5497 6.52539 9H12.9746C12.8268 6.5497 11.976 4.69099 11.126 3.41602C10.6577 2.71356 10.1907 2.18879 9.84473 1.84277C9.81228 1.81033 9.78018 1.78024 9.75 1.75098C9.71982 1.78024 9.68772 1.81033 9.65527 1.84277ZM7.7334 1.74902C4.38655 2.58992 1.85388 5.47501 1.53613 9H5.02246C5.17291 6.19519 6.14624 4.0536 7.12598 2.58398C7.33095 2.27653 7.5355 1.9979 7.7334 1.74902Z" fill="#7E74F1"/>
</svg>
