<svg width="18" height="16" viewBox="0 0 18 16" fill="none" xmlns="http://www.w3.org/2000/svg">
<path d="M16.75 14.0003C17.1642 14.0003 17.5 14.3361 17.5 14.7503C17.5 15.1645 17.1642 15.5003 16.75 15.5003H0.75C0.335786 15.5003 0 15.1645 0 14.7503C0 14.3361 0.335786 14.0003 0.75 14.0003H16.75ZM8.27637 0.168287C8.57095 -0.0720215 9.00567 -0.0545585 9.28027 0.220045L12.75 3.68977L16.2197 0.220045C16.4342 0.00556614 16.7569 -0.0590834 17.0371 0.0569593C17.3174 0.173045 17.5 0.446972 17.5 0.750319V11.7503C17.5 12.1645 17.1642 12.5003 16.75 12.5003H0.75C0.335786 12.5003 0 12.1645 0 11.7503V0.750319C0 0.446972 0.182635 0.173045 0.462891 0.0569593C0.743129 -0.0590832 1.06579 0.00556624 1.28027 0.220045L4.75 3.68977L8.21973 0.220045L8.27637 0.168287ZM5.28027 5.28059C4.98738 5.57348 4.51262 5.57348 4.21973 5.28059L1.5 2.56087V11.0003H16V2.56087L13.2803 5.28059C12.9874 5.57348 12.5126 5.57348 12.2197 5.28059L8.75 1.81087L5.28027 5.28059Z" fill="#7E74F1"/>
</svg>
