<svg width="20" height="20" viewBox="0 0 20 20" fill="none" xmlns="http://www.w3.org/2000/svg">
<path d="M5.27241 0V0.000976562C5.89053 -0.00327638 6.48978 0.215487 6.95893 0.618164C7.3096 0.919258 7.58009 1.35066 7.78608 1.78125C7.9979 2.22406 8.17004 2.72664 8.29976 3.22559C8.54984 4.18761 8.67949 5.28892 8.52534 6.01074C8.39125 6.63823 8.01888 7.12414 7.67182 7.49121C7.49535 7.67786 7.3087 7.85026 7.14155 8.00293C7.13245 8.01124 7.12316 8.01918 7.11421 8.02734C8.21509 9.78012 9.6994 11.2606 11.456 12.3594C11.4647 12.3499 11.4745 12.3407 11.4833 12.3311C11.6362 12.1643 11.8092 11.9787 11.996 11.8027C12.3639 11.4563 12.8499 11.0849 13.4775 10.9512C14.2008 10.7972 15.3075 10.9275 16.2744 11.1787C16.7757 11.309 17.281 11.4822 17.7255 11.6953C18.1574 11.9024 18.5908 12.1741 18.8916 12.5283C19.2937 13.002 19.5089 13.6058 19.498 14.2266V16.9336L19.4951 17.0713C19.4229 18.4709 18.1733 19.5973 16.749 19.4922C7.3277 19.4855 0.0132238 12.102 0.00678596 2.74512C-0.101464 1.27851 1.10012 0.00136888 2.55659 0H5.27241ZM2.44624 1.50684C1.89726 1.57062 1.45238 2.09238 1.50288 2.65137C1.50493 2.67403 1.50583 2.69697 1.50581 2.71973L0.760692 2.71875H0.755809L1.50581 2.71973C1.49917 11.1395 7.95869 17.7891 16.373 17.9883L16.7744 17.9932L16.8427 17.9961C17.4465 18.0506 18.0004 17.5351 17.998 16.9395V14.2266C17.998 14.2204 17.9988 14.2142 17.999 14.208C18.0054 13.9494 17.9159 13.6968 17.748 13.499C17.6441 13.3768 17.427 13.2156 17.0771 13.0479C16.7391 12.8858 16.3288 12.742 15.8974 12.6299C14.9989 12.3964 14.167 12.3387 13.79 12.4189C13.5601 12.468 13.3175 12.6185 13.0244 12.8945C12.8808 13.0297 12.7402 13.1806 12.5888 13.3457C12.4438 13.5039 12.2808 13.6843 12.1191 13.8457L12.0244 13.9258C11.7901 14.0925 11.4762 14.1122 11.2197 13.9668C8.83672 12.6145 6.86304 10.6452 5.50776 8.2666C5.34037 7.97281 5.3905 7.60312 5.62983 7.36426C5.79146 7.20296 5.97142 7.0402 6.12983 6.89551C6.2952 6.74446 6.44652 6.6042 6.58198 6.46094C6.85882 6.16814 7.0097 5.92586 7.05854 5.69727C7.13851 5.32247 7.08002 4.49654 6.84761 3.60254C6.73607 3.17359 6.59376 2.7657 6.43257 2.42871C6.26547 2.07943 6.10399 1.86108 5.9814 1.75586C5.78645 1.58866 5.53678 1.49747 5.27925 1.5H2.55757L2.44624 1.50684ZM11.5126 4.10645C11.592 3.69991 11.986 3.43438 12.3925 3.51367C13.2355 3.67813 14.1167 4.05714 14.7792 4.71973C15.4418 5.38231 15.8208 6.26352 15.9853 7.10645C16.0646 7.51295 15.799 7.90702 15.3925 7.98633C14.986 8.06562 14.592 7.80009 14.5126 7.39355C14.3895 6.76223 14.1182 6.17982 13.7187 5.78027C13.3192 5.38074 12.7367 5.10953 12.1054 4.98633C11.6989 4.90702 11.4334 4.51296 11.5126 4.10645ZM12.832 0.00488281C14.5565 0.196541 16.0869 1.02891 17.2792 2.21973C18.4729 3.41198 19.3005 4.94369 19.4941 6.66602C19.5403 7.07753 19.2444 7.44871 18.833 7.49512C18.4214 7.54136 18.0502 7.24547 18.0039 6.83398C17.8533 5.49396 17.2054 4.26577 16.2187 3.28027C15.2305 2.29346 14.0042 1.64379 12.666 1.49512C12.2544 1.4493 11.9581 1.07862 12.0039 0.666992C12.0497 0.255433 12.4204 -0.0408429 12.832 0.00488281Z" fill="#7E74F1"/>
</svg>
