<svg width="20" height="16" viewBox="0 0 20 16" fill="none" xmlns="http://www.w3.org/2000/svg">
<path d="M18 2.56055L11.6943 8.86621C10.6204 9.93992 8.87956 9.93992 7.80566 8.86621L1.5 2.56055V13.75C1.5 13.8881 1.61193 14 1.75 14H17.75C17.8881 14 18 13.8881 18 13.75V2.56055ZM8.86621 7.80566C9.35432 8.29359 10.1457 8.29359 10.6338 7.80566L16.9395 1.5H2.56055L8.86621 7.80566ZM19.5 13.75C19.5 14.7165 18.7165 15.5 17.75 15.5H1.75C0.783502 15.5 0 14.7165 0 13.75V1.75C9.70858e-08 1.26696 0.196829 0.828562 0.512695 0.512695C0.828562 0.196829 1.26696 0 1.75 0H17.75C18.233 0 18.6714 0.196827 18.9873 0.512695C19.3032 0.828561 19.5 1.26696 19.5 1.75V13.75Z" fill="#7E74F1"/>
</svg>
